<?xml version="1.0" encoding="utf-8"?>
<!-- Generator: Adobe Illustrator 26.2.1, SVG Export Plug-In . SVG Version: 6.00 Build 0)  -->
<svg version="1.1" id="Capa_1" xmlns="http://www.w3.org/2000/svg" xmlns:xlink="http://www.w3.org/1999/xlink" x="0px" y="0px"
	 viewBox="0 0 206.8 31.5" style="enable-background:new 0 0 206.8 31.5;" xml:space="preserve">
<style type="text/css">
	.st0{fill:#F2F2F2;}
	.st1{fill:url(#SVGID_1_);}
</style>
<g id="a">
</g>
<g>
	<path class="st0" d="M9.1,27.6c-2.5,0-4.7-1.7-4.7-4.8c0-2.9,2-4.9,4.7-4.9c1.1,0,2.3,0.4,3.3,1.3l2.6-2.7
		c-1.8-1.8-3.6-2.4-5.9-2.4c-4.8,0-8.7,2.9-8.7,8.7s4,8.7,8.7,8.7c2.4,0,4.4-0.7,6.3-2.6l-2.7-2.7C11.6,27.3,10.4,27.6,9.1,27.6z"/>
	<path class="st0" d="M24.2,14.3c-5.2,0-8.5,3.8-8.5,8.5s3.2,8.5,8.5,8.5s8.5-3.8,8.5-8.5S29.4,14.3,24.2,14.3L24.2,14.3z
		 M24.2,27.6c-3,0-4.5-2.3-4.5-4.8s1.5-4.9,4.5-4.9c2.7,0,4.5,2.4,4.5,4.9S27.2,27.6,24.2,27.6z"/>
	<path class="st0" d="M47.5,16.9c-1-1.7-3.7-2.6-5.4-2.6c-4.8,0-8.3,2.9-8.3,8.6s3.6,8.6,8.4,8.6c2,0,4-0.7,5.3-2.6l0.3,2.3h3.8V7.8
		h-4L47.5,16.9L47.5,16.9z M42.5,27.6c-2.6,0-4.7-2-4.7-4.8s2.1-4.8,4.7-4.8s4.8,1.9,4.8,4.8S45.1,27.6,42.5,27.6z"/>
	<path class="st0" d="M62.4,14.1c-5.3,0-8.7,3.6-8.7,8.6c0,5.2,3.3,8.7,9,8.7c2.5,0,5.3-0.9,7-2.7l-2.6-2.6c-0.9,1-2.9,1.5-4.4,1.5
		c-2.9,0-4.6-1.5-4.9-3.5h12.8C71.3,17.5,67.9,14.1,62.4,14.1L62.4,14.1z M58,20.9c0.6-2.1,2.4-3.2,4.6-3.2c2.3,0,4,1.1,4.3,3.2
		C66.8,20.9,58,20.9,58,20.9z"/>
	<rect x="72.8" y="14.6" class="st0" width="4.1" height="16.4"/>
	<path class="st0" d="M72.5,10c0,3.2,4.8,3.2,4.8,0S72.5,6.9,72.5,10z"/>
	<path class="st0" d="M88.7,14.4c-2.1,0-3.7,0.8-5.4,2.5l-0.3-2.2h-3.6V31h4v-8.4c0-2.5,1.7-4.6,4.2-4.6s3.9,1.9,3.9,4.4V31h4.1
		v-8.6C95.6,17.3,92.5,14.4,88.7,14.4L88.7,14.4z"/>
	<path class="st0" d="M107.6,14.2c-1.7,0-4.4,0.9-5.4,2.6V7.8h-4.1V31h3.8l0.3-2.3c1.3,2,3.3,2.6,5.3,2.6c4.8,0,8.4-3.2,8.4-8.6
		C115.9,17.1,112.4,14.2,107.6,14.2L107.6,14.2z M107.2,27.6c-2.6,0-4.8-1.9-4.8-4.8s2.2-4.8,4.8-4.8s4.7,1.8,4.7,4.8
		S109.8,27.6,107.2,27.6z"/>
	<rect x="117.9" y="7.8" class="st0" width="4" height="23.2"/>
	<path class="st0" d="M132.2,14.3c-5.2,0-8.5,3.8-8.5,8.5s3.2,8.5,8.5,8.5c5.3,0,8.5-3.8,8.5-8.5S137.4,14.3,132.2,14.3L132.2,14.3z
		 M132.2,27.6c-3,0-4.4-2.3-4.4-4.8s1.5-4.9,4.4-4.9c2.7,0,4.4,2.4,4.4,4.9S135.2,27.6,132.2,27.6z"/>
	<path class="st0" d="M150.3,27.6c-2.5,0-4.6-1.7-4.6-4.8c0-2.9,2-4.9,4.7-4.9c1.1,0,2.3,0.4,3.3,1.3l2.6-2.7
		c-1.8-1.8-3.6-2.4-5.9-2.4c-4.8,0-8.7,2.9-8.7,8.7s3.9,8.7,8.7,8.7c2.4,0,4.4-0.7,6.3-2.6l-2.7-2.7
		C152.9,27.3,151.6,27.6,150.3,27.6L150.3,27.6z"/>
	<polygon class="st0" points="165,22.3 171.7,14.9 171.7,14.6 166.9,14.6 161.3,21.2 161.3,7.8 157.3,7.8 157.3,31 161.3,31 
		161.3,23.6 167.8,31 172.6,31 172.6,30.7 	"/>
</g>
<linearGradient id="SVGID_1_" gradientUnits="userSpaceOnUse" x1="175.88" y1="15.485" x2="206.84" y2="15.485">
	<stop  offset="0" style="stop-color:#B3FFAB"/>
	<stop  offset="1" style="stop-color:#12FFF7"/>
</linearGradient>
<path class="st1" d="M190.3,31h-6.8c-4.2,0-7.7-3.5-7.7-7.7v-6.8c0-4.2,3.5-7.7,7.7-7.7h1.1V7.7c0-4.2,3.5-7.7,7.7-7.7h6.8
	c4.2,0,7.7,3.5,7.7,7.7v6.8c0,4.2-3.5,7.7-7.7,7.7h-1.1v1.1C198.1,27.5,194.6,31,190.3,31z M183.6,13.4c-1.7,0-3.1,1.4-3.1,3.1v6.8
	c0,1.7,1.4,3.1,3.1,3.1h6.8c1.7,0,3.1-1.4,3.1-3.1v-5.7h5.7c1.7,0,3.1-1.4,3.1-3.1V7.7c0-1.7-1.4-3.1-3.1-3.1h-6.8
	c-1.7,0-3.1,1.4-3.1,3.1v5.7H183.6z"/>
</svg>
