<?xml version="1.0" encoding="UTF-8"?><svg xmlns="http://www.w3.org/2000/svg" xmlns:xlink="http://www.w3.org/1999/xlink" viewBox="0 0 113.07 51.77"><defs><style>.g{fill:#fff;}.h{fill:url(#f);}.i{fill:url(#d);}.j{fill:url(#e);}</style><linearGradient id="d" x1="98.71" y1="43.05" x2="113.07" y2="43.05" gradientTransform="matrix(1, 0, 0, 1, 0, 0)" gradientUnits="userSpaceOnUse"><stop offset="0" stop-color="#b3ffab"/><stop offset="1" stop-color="#12fff7"/></linearGradient><linearGradient id="e" x1="87.22" y1="34.96" x2="108.9" y2="34.96" xlink:href="#d"/><linearGradient id="f" x1="101.83" y1="43.06" x2="109.93" y2="43.06" xlink:href="#d"/></defs><g id="a"/><g id="b"><g id="c"><g><path class="g" d="M7.41,19.25c1.97,0,3.59-.59,5.12-2.1l-2.21-2.16c-.81,.81-1.86,1.11-2.91,1.11-2.05,0-3.77-1.35-3.77-3.88,0-2.32,1.62-3.94,3.83-3.94,.92,0,1.89,.35,2.67,1.05l2.08-2.18c-1.46-1.43-2.91-1.97-4.8-1.97C3.56,5.18,.35,7.5,.35,12.21s3.21,7.04,7.06,7.04Z"/><path class="g" d="M19.55,19.25c1.48-.03,3.56-.78,4.31-2.35l.16,1.94h3.1V5.55h-3.16l-.11,1.83c-.75-1.32-2.45-2.16-4.23-2.16-3.88-.03-6.93,2.37-6.93,6.96s2.91,7.09,6.85,7.06Zm.38-11.08c5.18,0,5.18,8.06,0,8.06-2.18,0-3.94-1.51-3.94-4.04s1.75-4.02,3.94-4.02Z"/><rect class="g" x="29.83" width="3.26" height="18.85"/><path class="g" d="M42.07,19.25c1.97,0,3.59-.59,5.12-2.1l-2.21-2.16c-.81,.81-1.86,1.11-2.91,1.11-2.05,0-3.77-1.35-3.77-3.88,0-2.32,1.62-3.94,3.83-3.94,.92,0,1.89,.35,2.67,1.05l2.08-2.18c-1.46-1.43-2.91-1.97-4.8-1.97-3.86,0-7.06,2.32-7.06,7.04s3.21,7.04,7.06,7.04Z"/><path class="g" d="M53.77,19.06c1.86,0,3.13-.65,4.5-2l.22,1.81h2.94V5.55h-3.26v6.79c0,2.02-1.38,3.72-3.4,3.72s-3.21-1.54-3.21-3.56V5.55h-3.29v6.98c0,4.12,2.32,6.52,5.5,6.52Z"/><rect class="g" x="64.13" width="3.26" height="18.85"/><path class="g" d="M80.47,7.39c-.75-1.32-2.45-2.16-4.23-2.16-3.88-.03-6.93,2.37-6.93,6.96s2.91,7.09,6.85,7.06c1.48-.03,3.56-.78,4.31-2.35l.16,1.94h3.1V5.55h-3.16l-.11,1.83Zm-3.94,8.84c-2.18,0-3.94-1.51-3.94-4.04s1.75-4.02,3.94-4.02c5.18,0,5.18,8.06,0,8.06Z"/><path class="g" d="M92.82,16.04c-1.02,0-1.73-.62-1.73-1.89v-5.74h3.69v-2.83h-3.67V1.81l-3.29,.35v3.42h-2.48v2.83h2.48v5.74c0,3.32,1.89,4.96,4.77,4.85,1-.03,1.78-.19,2.72-.57l-.92-2.8c-.49,.24-1.08,.4-1.59,.4Z"/><path class="g" d="M102.88,5.15c-4.31,0-7.06,2.91-7.06,6.96,0,4.26,2.72,7.09,7.31,7.09,2.02,0,4.31-.7,5.72-2.16l-2.1-2.08c-.75,.78-2.35,1.24-3.56,1.24-2.32,0-3.75-1.19-3.96-2.83h10.38c.51-5.47-2.26-8.22-6.71-8.22Zm-3.61,5.5c.49-1.73,1.94-2.59,3.72-2.59,1.89,0,3.24,.86,3.45,2.59h-7.17Z"/><path class="g" d="M7.76,27.48c.67,0,1.32,.24,2.02,.7l1.21-2.45c-1.08-.7-2.29-1.08-3.45-1.08-2.67,0-5.07,1.65-5.07,5.2v.89H0v2.88H2.48v10.22h3.29v-10.22h3.91v-2.88h-3.91v-.89c0-1.62,.86-2.37,2-2.37Z"/><path class="g" d="M17.96,30.2c-1.35,0-2.72,.24-3.75,1.89l-.24-1.54h-3.05v13.29h3.29v-7.01c0-2.45,1.59-3.37,3.32-3.37,1.08,0,1.7,.3,2.37,.86l1.48-2.86c-.73-.73-2.05-1.27-3.42-1.27Z"/><path class="g" d="M28.12,30.15c-4.31,0-7.06,2.91-7.06,6.96,0,4.26,2.72,7.09,7.31,7.09,2.02,0,4.31-.7,5.72-2.16l-2.1-2.08c-.75,.78-2.35,1.24-3.56,1.24-2.32,0-3.75-1.19-3.96-2.83h10.38c.51-5.47-2.26-8.22-6.71-8.22Zm-3.61,5.5c.49-1.73,1.94-2.59,3.72-2.59,1.89,0,3.24,.86,3.45,2.59h-7.17Z"/><rect class="g" x="36.57" y="30.5" width="3.29" height="13.35"/><path class="g" d="M36.27,26.81c0,2.56,3.88,2.56,3.88,0s-3.88-2.56-3.88,0Z"/><path class="g" d="M53.88,29.13l-1.48,1.83c-.92-.62-2.37-.84-3.42-.84-3.72,0-7.28,2.26-7.28,6.74,0,4.15,2.88,6.69,7.28,6.69,2.48,0,3.77,1.02,3.77,2.62s-2,2.43-3.83,2.43c-2.08-.03-4.02-1.08-3.91-2.94h-3.26c-.13,3.8,2.56,6.12,7.17,6.12,3.56,0,7.25-1.83,7.25-5.61,0-1.29-.46-3.29-3.29-4.31,2.18-1,3.29-2.62,3.29-4.99,0-1.38-.38-2.59-1.54-3.96l1.67-1.94-2.43-1.83Zm-4.91,11.4c-2.16,0-3.99-1.35-3.99-3.67,0-2.48,1.83-3.69,3.99-3.69s3.91,1.43,3.91,3.69-1.75,3.67-3.91,3.67Z"/><path class="g" d="M65.61,30.37c-1.51,0-2.97,.46-4.15,2v-7.39h-3.29v18.87h3.29v-6.79c0-2,1.35-3.64,3.29-3.64,1.75,0,3.02,1.02,3.02,3.45v6.98h3.29v-7.01c0-3.91-1.67-6.47-5.45-6.47Z"/><path class="g" d="M79.74,41.04c-1.02,0-1.73-.62-1.73-1.89v-5.74h3.69v-2.83h-3.67v-3.77l-3.29,.35v3.42h-2.48v2.83h2.48v5.74c0,3.32,1.89,4.96,4.77,4.85,1-.03,1.78-.19,2.72-.57l-.92-2.8c-.49,.24-1.08,.4-1.59,.4Z"/></g><g><path class="i" d="M113.03,42.25c-.02-.13-.04-.26-.07-.39h0c-.29-1.89-1.4-3.62-3.05-4.74-1.64-1.12-3.65-1.52-5.52-1.1-3.69,.84-6.06,4.17-5.64,7.94,.31,2.75,2.39,5.2,5.05,5.96,.33,.09,.67,.16,.99,.22,.15,.03,.29,.05,.44,.09h1.29c.16-.04,.31-.06,.47-.09,.36-.07,.73-.13,1.09-.26,2.83-1.01,4.49-3.04,4.93-6.08l.03-1.29-.04-.24Zm-1.81,.94c-.06,1.47-.69,2.83-1.76,3.82-1.03,.95-2.34,1.44-3.72,1.38-3.03-.13-5.31-2.59-5.2-5.6,.05-1.39,.66-2.68,1.7-3.64,1.01-.93,2.3-1.43,3.67-1.43,.08,0,.17,0,.25,0,2.86,.13,5.17,2.64,5.05,5.47Z"/><path class="j" d="M98.98,37.71v-.64c0-1.26,0-2.52,0-3.81,1.86-.68,3.72-1.37,5.58-2.05l2.49-.91v3.2c0,.1,0,.19,.02,.29,.07,.47,.44,.8,.91,.81h0c.46,0,.84-.33,.91-.8,.01-.09,.02-.19,.02-.33v-4.43c0-.46-.22-.79-.66-.95l-2.11-.78c-2.53-.93-5.07-1.87-7.6-2.8-.32-.12-.62-.12-.94,0-2.99,1.11-5.99,2.21-8.98,3.31l-.73,.27c-.45,.17-.66,.47-.66,.97v12.3c0,.57,.2,.85,.73,1.05l8.25,3.04c.15,.06,.3,.08,.44,.08s.28-.03,.4-.09c.21-.1,.37-.28,.45-.51,.18-.52-.08-1-.65-1.21l-1.55-.57c-2.06-.76-4.12-1.52-6.23-2.29h0c0-2.96,0-5.91,0-8.87v-1.69l1.58,.58c2.16,.8,4.32,1.59,6.51,2.39,0,1.12,0,2.25,0,3.37v1.06c0,.09,0,.18,0,.26,.04,.45,.4,.8,.85,.83,.44,.03,.83-.26,.94-.68,.04-.14,.04-.28,.04-.39Zm6.33-8.75l-2.99,1.1c-1.38,.51-2.75,1.01-4.13,1.52-.1,.04-.16,.04-.26,0-2.09-.77-4.18-1.54-6.26-2.31l-.85-.31,1.1-.41c2.03-.75,4.06-1.5,6.09-2.24,.03,0,.06-.01,.07-.01,2.41,.88,4.82,1.77,7.23,2.66Z"/><path class="h" d="M108.78,42.17c-.17,.05-.33,.15-.49,.31-.47,.47-.95,.94-1.42,1.41l-.06,.06v-2.34c0-.55,0-1.1,0-1.64,0-.31-.12-.59-.34-.77-.21-.17-.47-.24-.76-.19-.46,.08-.74,.46-.74,1v3.94h0c-.49-.49-.98-.98-1.47-1.46-.11-.11-.3-.26-.53-.33-.39-.12-.81,.07-1.02,.45-.2,.38-.13,.8,.21,1.14,1,1,1.99,2,2.99,2.99,.24,.24,.49,.36,.74,.36s.5-.12,.74-.36l2.96-2.96s.1-.1,.14-.16c.25-.33,.27-.75,.04-1.09-.23-.34-.61-.47-.99-.37Z"/></g></g></g></svg>